# Blender v2.79 (sub 0) OBJ File: 'felt-lectern.blend'
# www.blender.org
mtllib felt-lectern-external.mtl
o Felt_Panel_front.006_Cube.005
v -0.688954 1.344814 -1.704670
v -0.688954 1.344814 -1.195412
v -0.698747 1.344814 -1.195412
v -0.698747 1.344814 -1.704671
v -0.688954 2.362856 -1.704670
v -0.688954 2.539613 -1.195412
v -0.698747 2.539613 -1.195412
v -0.698747 2.362856 -1.704670
v -0.688954 2.539648 -1.324120
v -0.698747 2.539648 -1.324120
v -0.008234 1.344814 -1.706338
v -0.008234 1.344814 -1.197080
v -0.018027 1.344814 -1.197080
v -0.018027 1.344814 -1.706338
v -0.008234 2.362856 -1.706338
v -0.008234 2.539613 -1.197080
v -0.018027 2.539613 -1.197080
v -0.018027 2.362856 -1.706338
v -0.008234 2.539648 -1.325787
v -0.018027 2.539648 -1.325787
v -0.009424 1.344814 -1.205190
v -0.013259 1.344814 -1.195397
v -0.698799 1.344814 -1.195397
v -0.694963 1.344814 -1.205190
v -0.009423 2.539613 -1.205190
v -0.013259 2.539613 -1.195397
v -0.698799 2.539613 -1.195397
v -0.694963 2.539613 -1.205190
vn -0.0000 1.0000 0.0003
vn 1.0000 0.0000 0.0000
vn 0.0000 0.0000 -1.0000
vn 0.0000 0.9069 -0.4213
vn -1.0000 -0.0000 -0.0000
vn 0.0000 1.0000 -0.0000
vn 0.9311 -0.0000 0.3647
vn -0.0000 -0.0000 1.0000
vn -0.9311 -0.0000 -0.3647
usemtl Black
s off
f 9//1 10//1 7//1 6//1
f 1//2 5//2 9//2 6//2 2//2
f 5//3 1//3 4//3 8//3
f 5//4 8//4 10//4 9//4
f 19//1 20//1 17//1 16//1
f 13//5 17//5 20//5 18//5 14//5
f 15//3 11//3 14//3 18//3
f 15//4 18//4 20//4 19//4
f 25//6 28//6 27//6 26//6
f 25//3 21//3 24//3 28//3
usemtl Blue
f 3//5 7//5 10//5 8//5 4//5
f 11//2 15//2 19//2 16//2 12//2
usemtl Material
f 21//7 25//7 26//7 22//7
f 22//8 26//8 27//8 23//8
f 23//9 27//9 28//9 24//9
