# Blender v2.79 (sub 0) OBJ File: 'sofa.blend'
# www.blender.org
mtllib sofa.mtl
o Cube.002
v 0.209228 0.301417 0.111080
v -0.485702 0.301417 0.115640
v -0.486516 0.301417 -0.008380
v 0.208415 0.301417 -0.012939
v 0.208854 0.772810 0.054110
v -0.486076 0.772810 0.058669
v -0.486515 0.772810 -0.008380
v 0.208415 0.772810 -0.012939
vn 0.5753 -0.5444 0.6104
vn -0.5672 -0.5444 0.6179
vn -0.5811 -0.5773 -0.5735
vn 0.5735 -0.5773 -0.5811
vn 0.5875 0.6075 0.5346
vn 0.5735 0.5773 -0.5811
vn -0.5811 0.5773 -0.5735
vn -0.5804 0.6075 0.5423
usemtl Material
s 1
f 1//1 2//2 3//3 4//4
f 5//5 8//6 7//7 6//8
f 1//1 5//5 6//8 2//2
f 2//2 6//8 7//7 3//3
f 3//3 7//7 8//6 4//4
f 5//5 1//1 4//4 8//6
o Cube.001
v 0.215467 0.296512 0.538435
v -0.479457 0.296512 0.542994
v -0.482845 0.296512 0.026556
v 0.212079 0.296512 0.021997
v 0.215467 0.419221 0.538435
v -0.479457 0.419221 0.542994
v -0.482845 0.419221 0.026556
v 0.212079 0.419221 0.021997
vn 0.5811 -0.5773 0.5735
vn -0.5735 -0.5773 0.5811
vn -0.5811 -0.5773 -0.5735
vn 0.5735 -0.5773 -0.5811
vn 0.5811 0.5773 0.5735
vn 0.5735 0.5773 -0.5811
vn -0.5811 0.5773 -0.5735
vn -0.5735 0.5773 0.5811
usemtl Material
s 1
f 9//9 10//10 11//11 12//12
f 13//13 16//14 15//15 14//16
f 9//9 13//13 14//16 10//10
f 10//10 14//16 15//15 11//11
f 11//11 15//15 16//14 12//12
f 13//13 9//9 12//12 16//14
o Cube
v 0.215284 -0.018293 0.521750
v -0.479639 -0.018293 0.526310
v -0.483162 -0.018293 -0.010687
v 0.211761 -0.018293 -0.015246
v 0.215284 0.300939 0.521750
v -0.479639 0.300939 0.526309
v -0.483162 0.300939 -0.010687
v 0.211761 0.300939 -0.015247
vn 0.5811 -0.5773 0.5735
vn -0.5735 -0.5773 0.5811
vn -0.5811 -0.5773 -0.5735
vn 0.5735 -0.5773 -0.5811
vn 0.5811 0.5773 0.5735
vn 0.5735 0.5773 -0.5811
vn -0.5811 0.5773 -0.5735
vn -0.5735 0.5773 0.5811
usemtl Material
s 1
f 17//17 18//18 19//19 20//20
f 21//21 24//22 23//23 22//24
f 17//17 21//21 22//24 18//18
f 18//18 22//24 23//23 19//19
f 19//19 23//23 24//22 20//20
f 21//21 17//17 20//20 24//22
